<svg width="22" height="22" viewBox="0 0 22 22" fill="none" xmlns="http://www.w3.org/2000/svg">
<path d="M9.96168 22C9.17009 22 8.56355 21.5164 8.3785 20.7549L7.92617 18.8307L7.5972 18.7175L5.93178 19.7465C5.26355 20.1684 4.48224 20.0655 3.91682 19.4995L2.48785 18.0692C1.92243 17.5033 1.80935 16.7212 2.24112 16.0627L3.27944 14.3957L3.16636 14.087L1.24393 13.6342C0.493458 13.449 0 12.8316 0 12.0496V10.0122C0 9.23012 0.483178 8.61272 1.24393 8.4275L3.14579 7.96445L3.26916 7.63517L2.23084 5.96819C1.79907 5.30964 1.91215 4.53789 2.47757 3.96165L3.90654 2.52105C4.46168 1.96539 5.24299 1.86249 5.91121 2.27409L7.57664 3.30309L7.92617 3.16932L8.3785 1.24509C8.56355 0.48363 9.17009 0 9.96168 0H12.0383C12.8299 0 13.4364 0.48363 13.6215 1.24509L14.0636 3.16932L14.4131 3.30309L16.0888 2.27409C16.757 1.86249 17.528 1.96539 18.0832 2.52105L19.5224 3.96165C20.0879 4.53789 20.1907 5.30964 19.7692 5.96819L18.7206 7.63517L18.8542 7.96445L20.7561 8.4275C21.5168 8.61272 22 9.23012 22 10.0122V12.0496C22 12.8316 21.5065 13.449 20.7561 13.6342L18.8336 14.087L18.7103 14.3957L19.7589 16.0627C20.1804 16.7212 20.0776 17.5033 19.5121 18.0692L18.0729 19.4995C17.5075 20.0655 16.7364 20.1684 16.0682 19.7465L14.3925 18.7175L14.0636 18.8307L13.6215 20.7549C13.4364 21.5164 12.8299 22 12.0383 22H9.96168ZM10.1262 20.3948H11.8738C12.0486 20.3948 12.1411 20.3227 12.1617 20.1581L12.7888 17.6062C13.4159 17.4518 13.9916 17.2049 14.4336 16.927L16.6748 18.3059C16.8084 18.3985 16.9318 18.3779 17.0654 18.2544L18.2682 17.0402C18.3916 16.927 18.3916 16.8036 18.3093 16.6595L16.9318 14.4369C17.1785 14.0047 17.4355 13.4181 17.6 12.7905L20.1598 12.1833C20.314 12.1525 20.3963 12.0599 20.3963 11.8849V10.1665C20.3963 9.98129 20.3243 9.89897 20.1598 9.8681L17.6103 9.2507C17.4458 8.58185 17.1477 7.97474 16.9523 7.59401L18.3196 5.37138C18.4121 5.21703 18.4121 5.09355 18.2888 4.97007L17.0757 3.77643C16.9421 3.65295 16.8393 3.63237 16.6748 3.72498L14.4439 5.08326C13.9813 4.8363 13.4262 4.57905 12.7888 4.41441L12.1617 1.84191C12.1411 1.67727 12.0486 1.60524 11.8738 1.60524H10.1262C9.9514 1.60524 9.85888 1.67727 9.82804 1.84191L9.22149 4.39383C8.60467 4.56876 7.97757 4.82601 7.53551 5.07297L5.31495 3.72498C5.16075 3.63237 5.04766 3.65295 4.9243 3.77643L3.70093 4.97007C3.58785 5.09355 3.57757 5.21703 3.67009 5.37138L5.03738 7.59401C4.85234 7.97474 4.54393 8.58185 4.37944 9.2507L1.84019 9.8681C1.66542 9.89897 1.60374 9.98129 1.60374 10.1665V11.8849C1.60374 12.0599 1.6757 12.1525 1.84019 12.1833L4.38972 12.7905C4.55421 13.4181 4.8215 14.0047 5.05794 14.4369L3.68037 16.6595C3.59813 16.8036 3.60841 16.927 3.7215 17.0402L4.93458 18.2544C5.05794 18.3779 5.19159 18.3985 5.31495 18.3059L7.55607 16.927C7.99813 17.2049 8.58411 17.4518 9.21122 17.6062L9.82804 20.1581C9.85888 20.3227 9.9514 20.3948 10.1262 20.3948ZM11 14.9308C8.84112 14.9308 7.0729 13.1506 7.0729 11C7.0729 8.85968 8.8514 7.0898 11 7.0898C13.1486 7.0898 14.9168 8.85968 14.9168 11C14.9168 13.1609 13.1486 14.9308 11 14.9308ZM11 13.3358C12.2542 13.3358 13.3028 12.276 13.3028 11C13.3028 9.73433 12.2542 8.68475 11 8.68475C9.72523 8.68475 8.67663 9.73433 8.67663 11C8.67663 12.2862 9.72523 13.3358 11 13.3358Z" fill="#797979"/>
</svg>
