<svg width="19" height="29" viewBox="0 0 19 29" fill="none" xmlns="http://www.w3.org/2000/svg">
<rect x="1" y="2" width="16" height="25" rx="4" fill="#4866D1" stroke="#4866D1" stroke-width="2"/>
<path d="M13.5 1H14C16.2091 1 18 2.79086 18 5V24C18 26.2091 16.2091 28 14 28H3.5" stroke="#2C428F" stroke-width="2" stroke-linecap="round"/>
<path d="M9.35066 17.825C9.77659 17.825 10.0565 17.5288 10.0565 17.0826V13.0261L10.02 12.1499L10.6203 12.8679L11.529 13.7766C11.6588 13.9105 11.817 14.0078 12.0361 14.0078C12.4133 14.0078 12.7013 13.732 12.7013 13.3263C12.7013 13.1438 12.6283 12.9653 12.4823 12.8233L9.86989 10.2069C9.74414 10.0811 9.54132 10 9.35066 10C9.16001 10 8.95718 10.0811 8.83143 10.2069L6.21905 12.8233C6.07707 12.9653 6 13.1438 6 13.3263C6 13.732 6.28801 14.0078 6.66932 14.0078C6.88431 14.0078 7.04657 13.9105 7.17638 13.7766L8.07692 12.8679L8.68134 12.1499L8.64078 13.0261V17.0826C8.64078 17.5288 8.92473 17.825 9.35066 17.825Z" fill="#DCE2FB"/>
</svg>
