<svg width="20" height="20" viewBox="0 0 20 20" fill="none" xmlns="http://www.w3.org/2000/svg">
<path d="M1.21875 6.65625C0.720703 6.65625 0.4375 6.36328 0.4375 5.85547V3.46289C0.4375 1.45117 1.46289 0.445312 3.50391 0.445312H5.88672C6.4043 0.445312 6.6875 0.71875 6.6875 1.22656C6.6875 1.73438 6.4043 2.01758 5.88672 2.01758H3.52344C2.54688 2.01758 2.00977 2.53516 2.00977 3.55078V5.85547C2.00977 6.36328 1.73633 6.65625 1.21875 6.65625ZM18.7676 6.65625C18.2695 6.65625 17.9863 6.36328 17.9863 5.85547V3.55078C17.9863 2.53516 17.4297 2.01758 16.4629 2.01758H14.0996C13.5918 2.01758 13.3086 1.73438 13.3086 1.22656C13.3086 0.71875 13.5918 0.445312 14.0996 0.445312H16.4922C18.5332 0.445312 19.5586 1.45117 19.5586 3.46289V5.85547C19.5586 6.36328 19.2852 6.65625 18.7676 6.65625ZM9.99805 9.66406C8.46484 9.6543 7.24414 8.375 7.24414 6.64648C7.24414 5.03516 8.46484 3.69727 9.99805 3.69727C11.5312 3.69727 12.752 5.03516 12.752 6.64648C12.752 8.375 11.5312 9.67383 9.99805 9.66406ZM5.08594 15.4453C4.66602 15.4453 4.45117 15.1621 4.45117 14.7617C4.45117 13.5898 6.22852 10.543 9.99805 10.543C13.7676 10.543 15.5449 13.5898 15.5449 14.7617C15.5449 15.1621 15.3301 15.4453 14.9102 15.4453H5.08594ZM3.50391 19.5566C1.46289 19.5566 0.4375 18.5508 0.4375 16.5293V14.1465C0.4375 13.6289 0.710938 13.3457 1.21875 13.3457C1.72656 13.3457 2.00977 13.6289 2.00977 14.1465V16.4512C2.00977 17.4668 2.54688 17.9844 3.52344 17.9844H5.88672C6.4043 17.9844 6.6875 18.2676 6.6875 18.7754C6.6875 19.2734 6.4043 19.5566 5.88672 19.5566H3.50391ZM14.0996 19.5566C13.5918 19.5566 13.3086 19.2734 13.3086 18.7754C13.3086 18.2676 13.5918 17.9844 14.0996 17.9844H16.4629C17.4297 17.9844 17.9863 17.4668 17.9863 16.4512V14.1465C17.9863 13.6289 18.2598 13.3457 18.7676 13.3457C19.2754 13.3457 19.5586 13.6289 19.5586 14.1465V16.5293C19.5586 18.541 18.5332 19.5566 16.4922 19.5566H14.0996Z" fill="white"/>
</svg>
