<svg width="24" height="22" viewBox="0 0 24 22" fill="none" xmlns="http://www.w3.org/2000/svg">
<path d="M0.818815 8.83834H2.31403C3.32145 3.82285 7.7859 0 13.0457 0C19.0478 0 24 4.98354 24 11C24 17.0271 19.0478 22 13.0457 22C9.60985 22 6.39672 20.2643 4.43491 17.6873C3.96832 17.1229 4.06376 16.4414 4.55156 16.09C5.06057 15.7173 5.68623 15.8771 6.1104 16.3775C7.70106 18.486 10.1931 19.8277 13.0457 19.8383C17.9237 19.849 21.8473 15.8984 21.8473 11C21.8473 6.10165 17.9237 2.17231 13.0457 2.17231C8.90996 2.17231 5.46354 4.99419 4.50914 8.83834H6.04678C6.86331 8.83834 7.0648 9.4666 6.63002 10.0736L4.06376 13.6621C3.71381 14.152 3.16238 14.1626 2.80184 13.6621L0.235574 10.0842C-0.220414 9.45595 -0.00832675 8.83834 0.818815 8.83834ZM12.6533 4.82381C13.1623 4.82381 13.5759 5.23911 13.5759 5.75024V11.2236L16.0361 14.5566C16.3754 15.0145 16.3436 15.5789 15.9089 15.8771C15.4529 16.2072 14.9014 16.122 14.5303 15.6215L11.9958 12.2672C11.8156 12.0223 11.7307 11.788 11.7307 11.5431V5.75024C11.7307 5.23911 12.1337 4.82381 12.6533 4.82381Z" fill="#797979"/>
</svg>
