<svg width="18" height="18" viewBox="0 0 18 18" fill="none" xmlns="http://www.w3.org/2000/svg">
<path d="M10.6953 17.0156C11.2891 17.0156 11.7109 16.5312 12 15.7812L17.1562 2.30469C17.2891 1.95312 17.3672 1.64844 17.3672 1.38281C17.3672 0.828125 17.0156 0.476562 16.4609 0.476562C16.2031 0.476562 15.8906 0.554688 15.5391 0.6875L2.00781 5.86719C1.33594 6.125 0.828125 6.54688 0.828125 7.15625C0.828125 7.89844 1.38281 8.17969 2.14844 8.40625L6.20312 9.64844C6.75 9.8125 7.0625 9.80469 7.44531 9.45312L16.1406 1.39062C16.25 1.29688 16.375 1.30469 16.4609 1.38281C16.5469 1.46875 16.5547 1.60156 16.4531 1.71094L8.41406 10.4141C8.08594 10.7734 8.05469 11.1094 8.21875 11.6641L9.42188 15.6328C9.66406 16.4297 9.9375 17.0156 10.6953 17.0156Z" fill="white"/>
</svg>
