<svg width="14" height="14" viewBox="0 0 14 14" fill="none" xmlns="http://www.w3.org/2000/svg">
<path d="M0.390625 7.35938C0.390625 7.91406 0.851562 8.36719 1.39844 8.36719H5.99219V12.9609C5.99219 13.5156 6.44531 13.9688 7 13.9688C7.55469 13.9688 8.00781 13.5156 8.00781 12.9609V8.36719H12.6016C13.1562 8.36719 13.6094 7.91406 13.6094 7.35938C13.6094 6.80469 13.1562 6.35156 12.6016 6.35156H8.00781V1.75781C8.00781 1.21094 7.55469 0.75 7 0.75C6.44531 0.75 5.99219 1.21094 5.99219 1.75781V6.35156H1.39844C0.851562 6.35156 0.390625 6.80469 0.390625 7.35938Z" fill="white"/>
</svg>
