<svg width="19" height="24" viewBox="0 0 19 24" fill="none" xmlns="http://www.w3.org/2000/svg">
<path d="M3.94537 23.2919C1.71306 23.2919 0.555176 22.1131 0.555176 19.8704V4.12949C0.555176 1.87632 1.71306 0.708008 3.94537 0.708008H7.05391C7.43987 0.708008 7.67979 0.947929 7.67979 1.33389C7.67979 2.36659 8.39955 3.13851 9.49484 3.13851C10.6006 3.13851 11.3099 2.36659 11.3099 1.33389C11.3099 0.947929 11.5498 0.708008 11.9358 0.708008H15.0548C17.2871 0.708008 18.4449 1.87632 18.4449 4.12949V19.8704C18.4449 22.1131 17.2871 23.2919 15.0548 23.2919H3.94537ZM4.11227 21.2473H14.8774C15.8893 21.2473 16.4004 20.7049 16.4004 19.7452V4.25467C16.4004 3.28455 15.8893 2.75255 14.8774 2.75255H12.885C12.4365 4.20251 11.1743 5.08918 9.49484 5.08918C7.82583 5.08918 6.56363 4.20251 6.11509 2.75255H4.11227C3.10043 2.75255 2.59972 3.28455 2.59972 4.25467V19.7452C2.59972 20.7049 3.10043 21.2473 4.11227 21.2473ZM5.6874 8.70885C5.29101 8.70885 5.00936 8.41678 5.00936 8.03082C5.00936 7.66572 5.29101 7.38407 5.6874 7.38407H13.3232C13.6987 7.38407 13.9803 7.66572 13.9803 8.03082C13.9803 8.41678 13.6987 8.70885 13.3232 8.70885H5.6874ZM5.6874 12.3285C5.29101 12.3285 5.00936 12.0365 5.00936 11.6714C5.00936 11.2958 5.29101 11.0038 5.6874 11.0038H9.3801C9.75563 11.0038 10.0373 11.2958 10.0373 11.6714C10.0373 12.0365 9.75563 12.3285 9.3801 12.3285H5.6874Z" fill="#797979"/>
</svg>
