<svg width="20" height="20" viewBox="0 0 20 20" fill="none" xmlns="http://www.w3.org/2000/svg">
<path d="M9.5 17.1943C13.4102 17.1943 16.6299 13.9746 16.6299 10.0645C16.6299 6.16113 13.4033 2.93457 9.49316 2.93457C5.58984 2.93457 2.37012 6.16113 2.37012 10.0645C2.37012 13.9746 5.58984 17.1943 9.5 17.1943ZM7.29199 12.9766C6.90234 12.9766 6.59473 12.6689 6.59473 12.2656C6.59473 12.0879 6.66992 11.9102 6.7998 11.7803L8.50195 10.0781L6.7998 8.36914C6.66992 8.23926 6.59473 8.06152 6.59473 7.88379C6.59473 7.4873 6.90234 7.17969 7.29199 7.17969C7.50391 7.17969 7.66113 7.24805 7.79785 7.38477L9.5 9.08008L11.2158 7.37793C11.3594 7.23438 11.5166 7.17285 11.7217 7.17285C12.1113 7.17285 12.4189 7.48047 12.4189 7.87012C12.4189 8.06152 12.3574 8.22559 12.2139 8.36914L10.5049 10.0781L12.207 11.7734C12.3438 11.9033 12.4121 12.0811 12.4121 12.2656C12.4121 12.6689 12.1045 12.9766 11.708 12.9766C11.5029 12.9766 11.3252 12.9082 11.1953 12.7715L9.5 11.0762L7.81152 12.7715C7.6748 12.9082 7.50391 12.9766 7.29199 12.9766Z" fill="#4D4D4D"/>
</svg>
