<svg width="22" height="27" viewBox="0 0 22 27" fill="none" xmlns="http://www.w3.org/2000/svg">
<path d="M1.31251 15.1946L11.1125 2.31586V10.7887H19.6875L8.94323 24.6841V15.1946H1.31251Z" fill="#F4B719"/>
<path fill-rule="evenodd" clip-rule="evenodd" d="M11.5326 1.06931C12.066 1.24997 12.425 1.75149 12.425 2.31586V9.47291H19.6875C20.1884 9.47291 20.6456 9.75873 20.8661 10.2096C21.0865 10.6605 21.0317 11.1979 20.7248 11.5948L9.98057 25.4902C9.63682 25.9348 9.04917 26.1112 8.51829 25.929C7.98741 25.7469 7.63073 25.2466 7.63073 24.6841V16.5103H1.31251C0.813437 16.5103 0.357549 16.2266 0.136184 15.7782C-0.085181 15.3298 -0.0337159 14.7943 0.268979 14.3965L10.069 1.51782C10.4104 1.0691 10.9993 0.888657 11.5326 1.06931ZM3.96454 13.8788H8.94323C9.6681 13.8788 10.2557 14.4679 10.2557 15.1946V20.839L17.0095 12.1045H11.1125C10.3876 12.1045 9.8 11.5154 9.8 10.7887V6.21009L3.96454 13.8788Z" fill="#F4B719"/>
<path d="M21 10L9 26" stroke="#F27F15" stroke-width="2" stroke-linecap="round"/>
<path d="M12 1V10" stroke="#F27F15" stroke-width="2" stroke-linecap="round"/>
</svg>
