<svg width="22" height="22" viewBox="0 0 22 22" fill="none" xmlns="http://www.w3.org/2000/svg">
<path d="M0.881348 16.6433C0.881348 15.5376 1.90362 14.5883 2.84244 13.6704C3.58307 12.9506 3.74997 11.5111 3.88558 10.082C4.02118 6.12849 5.16863 3.48935 7.89122 2.49838C8.28761 1.12144 9.44549 0.0678711 10.9998 0.0678711C12.554 0.0678711 13.7119 1.12144 14.1083 2.49838C16.8309 3.48935 17.9783 6.12849 18.1139 10.082C18.2495 11.5111 18.4269 12.9506 19.1571 13.6704C20.1063 14.5883 21.1182 15.5376 21.1182 16.6433C21.1182 17.5195 20.461 18.1141 19.3761 18.1141H15.0888C14.995 20.1169 13.3677 21.932 10.9998 21.932C8.63184 21.932 7.00455 20.1065 6.91067 18.1141H2.62338C1.54895 18.1141 0.881348 17.5195 0.881348 16.6433ZM3.37444 16.2052H18.6042V16.08C18.3434 15.7775 17.7593 15.2246 17.2377 14.63C16.5284 13.806 16.1841 12.3143 16.0798 10.3323C15.9651 6.09719 14.6612 4.68896 12.9817 4.22998C12.7209 4.16739 12.5749 4.04222 12.554 3.76057C12.5123 2.69657 11.9177 1.98724 10.9998 1.98724C10.0818 1.98724 9.49764 2.69657 9.44549 3.76057C9.42463 4.04222 9.27859 4.16739 9.02823 4.22998C7.33835 4.68896 6.04487 6.09719 5.91969 10.3323C5.81538 12.3143 5.48157 13.806 4.76181 14.63C4.25067 15.2246 3.64566 15.7775 3.37444 16.08V16.2052ZM8.88219 18.1141C8.96565 19.418 9.82102 20.263 10.9998 20.263C12.1889 20.263 13.0443 19.418 13.1173 18.1141H8.88219Z" fill="#202020"/>
</svg>
