<svg width="32" height="32" viewBox="0 0 32 32" fill="none" xmlns="http://www.w3.org/2000/svg">
<path d="M16.0078 25.0156C7.58073 25.0156 1.69531 18.1302 1.69531 15.9948C1.69531 13.8594 7.59115 6.98438 16.0078 6.98438C24.5391 6.98438 30.3099 13.8594 30.3099 15.9948C30.3099 18.1302 24.5495 25.0156 16.0078 25.0156ZM16.0078 23.0156C22.6536 23.0156 27.9557 17.4531 27.9557 15.9948C27.9557 14.776 22.6536 8.98438 16.0078 8.98438C9.35156 8.98438 4.0599 14.776 4.0599 15.9948C4.0599 17.4531 9.35156 23.0156 16.0078 23.0156ZM16.0078 21.6094C12.8724 21.6094 10.3932 19.0573 10.3724 15.9948C10.362 12.8594 12.8724 10.3906 16.0078 10.3906C19.1328 10.3906 21.6328 12.8594 21.6328 15.9948C21.6328 19.0573 19.1328 21.6094 16.0078 21.6094ZM16.0078 17.8073C17.0182 17.8073 17.8307 16.9948 17.8307 15.9948C17.8307 14.9948 17.0182 14.1823 16.0078 14.1823C14.9974 14.1823 14.1745 14.9948 14.1745 15.9948C14.1745 16.9948 14.9974 17.8073 16.0078 17.8073Z" fill="#202020"/>
</svg>
