<svg width="25" height="25" viewBox="0 0 25 25" fill="none" xmlns="http://www.w3.org/2000/svg">
<path d="M12.5 25C19.3552 25 25 19.3552 25 12.5C25 5.65676 19.3432 0 12.488 0C5.64477 0 0 5.65676 0 12.5C0 19.3552 5.64477 25 12.5 25ZM5.26127 5.12943C6.43576 3.97891 7.88591 3.09204 9.50383 2.58869C8.64094 3.4396 7.92186 4.65005 7.37057 6.12416C6.54362 5.8605 5.83653 5.52493 5.26127 5.12943ZM15.5081 2.60067C17.1141 3.10403 18.5642 3.97891 19.7387 5.14142C19.1635 5.53691 18.4564 5.8605 17.6294 6.12416C17.0901 4.66203 16.3591 3.45158 15.5081 2.60067ZM13.3749 3.09204C14.3456 3.57143 15.2325 4.8418 15.8797 6.55561C15.1007 6.68744 14.2617 6.77133 13.3749 6.80729V3.09204ZM9.12033 6.55561C9.7675 4.8418 10.6544 3.57143 11.6251 3.09204V6.80729C10.7383 6.77133 9.89933 6.68744 9.12033 6.55561ZM2.18121 11.6251C2.34899 9.70757 3.0441 7.92186 4.13471 6.43576C4.8418 6.97507 5.77661 7.43049 6.86721 7.77804C6.57958 8.95254 6.39981 10.2469 6.33988 11.6251H2.18121ZM18.6601 11.6251C18.6002 10.2469 18.4204 8.95254 18.1328 7.77804C19.2234 7.43049 20.1582 6.97507 20.8653 6.44775C21.9559 7.93384 22.651 9.70757 22.8188 11.6251H18.6601ZM8.1256 11.6251C8.18552 10.4267 8.35331 9.27613 8.61697 8.22148C9.55177 8.40125 10.5705 8.52109 11.6251 8.56903V11.6251H8.1256ZM13.3749 11.6251V8.56903C14.4295 8.52109 15.4482 8.40125 16.383 8.22148C16.6467 9.27613 16.8145 10.4267 16.8744 11.6251H13.3749ZM2.18121 13.3749H6.33988C6.38782 14.7771 6.57958 16.0834 6.87919 17.2819C5.78859 17.6294 4.86577 18.0729 4.15868 18.6002C3.05609 17.1021 2.34899 15.3044 2.18121 13.3749ZM8.1256 13.3749H11.6251V16.4909C10.5705 16.5388 9.56376 16.6587 8.61697 16.8384C8.35331 15.7598 8.18552 14.5853 8.1256 13.3749ZM13.3749 16.4909V13.3749H16.8744C16.8145 14.5853 16.6467 15.7598 16.383 16.8384C15.4362 16.6587 14.4295 16.5388 13.3749 16.4909ZM18.1208 17.2819C18.4204 16.0834 18.6122 14.7771 18.6601 13.3749H22.8188C22.651 15.3044 21.9439 17.1021 20.8413 18.6002C20.1342 18.0729 19.2114 17.6294 18.1208 17.2819ZM9.14429 18.5043C9.91131 18.3725 10.7383 18.2766 11.6251 18.2407V21.9319C10.6663 21.4406 9.77948 20.1822 9.14429 18.5043ZM13.3749 18.2407C14.2617 18.2766 15.0887 18.3725 15.8557 18.5043C15.2205 20.1822 14.3337 21.4406 13.3749 21.9319V18.2407ZM17.6174 18.9238C18.4324 19.1874 19.1395 19.511 19.7148 19.8945C18.5403 21.0451 17.1021 21.908 15.5201 22.3993C16.3591 21.5604 17.0781 20.3739 17.6174 18.9238ZM5.29722 19.8945C5.8605 19.511 6.56759 19.1874 7.38255 18.9238C7.92186 20.3739 8.64094 21.5604 9.47987 22.3993C7.89789 21.908 6.45973 21.0451 5.29722 19.8945Z" fill="#11B1E2"/>
<path d="M13 1V0C12.5593 0 12.1706 0.288457 12.0429 0.710216C11.9152 1.13197 12.0786 1.58761 12.4453 1.83205L13 1ZM13.5 24L12.7 23.4C12.4583 23.7222 12.4336 24.1579 12.6372 24.5055C12.8407 24.853 13.2329 25.0445 13.6322 24.9912L13.5 24ZM21.2498 5L22.041 4.38842L21.2498 5ZM17.756 12.5L16.756 12.4907L17.756 12.5ZM13 2C16.279 2 18.7943 3.45848 20.4586 5.61158L22.041 4.38842C20.0238 1.77884 16.9394 0 13 0V2ZM17.3163 8.44867C17.8648 8.26579 18.7294 7.91925 19.5954 7.45734C20.4411 7.00632 21.392 6.39133 22.018 5.64024L20.4817 4.35976C20.1075 4.80867 19.4335 5.27702 18.6542 5.69266C17.8953 6.09741 17.135 6.40088 16.6837 6.55133L17.3163 8.44867ZM18.7559 12.5093C18.7716 10.832 18.5386 9.05133 17.9536 7.19887L16.0464 7.80113C16.5654 9.44442 16.7698 11.0149 16.756 12.4907L18.7559 12.5093ZM20.4586 5.61158C21.9404 7.52851 22.7542 10.0096 22.7794 12.5101L24.7793 12.4899C24.7501 9.58683 23.8089 6.67548 22.041 4.38842L20.4586 5.61158ZM17.756 13.5H23.7793V11.5H17.756V13.5ZM14.3 24.6C15.2856 23.2859 16.7334 21.1143 17.7086 18.3306L15.8211 17.6694C14.939 20.187 13.6196 22.1739 12.7 23.4L14.3 24.6ZM17.7086 18.3306C18.311 16.6111 18.7359 14.6501 18.7559 12.5093L16.756 12.4907C16.7384 14.3768 16.364 16.1197 15.8211 17.6694L17.7086 18.3306ZM22.7794 12.5101C22.8043 14.9874 22.0555 17.4346 20.4786 19.345L22.021 20.6182C23.9378 18.296 24.8083 15.3725 24.7793 12.4899L22.7794 12.5101ZM20.4786 19.345C18.9687 21.1743 16.6515 22.571 13.3678 23.0088L13.6322 24.9912C17.3753 24.4921 20.1646 22.8672 22.021 20.6182L20.4786 19.345ZM16.5151 18.9683C17.1075 19.1211 18.0374 19.4007 18.8803 19.7351C19.3024 19.9027 19.6816 20.0757 19.9783 20.2436C20.1261 20.3273 20.2412 20.4028 20.3256 20.4679C20.3672 20.4999 20.3972 20.5263 20.418 20.5464C20.439 20.5668 20.4461 20.5765 20.4447 20.5747L22.055 19.3885C21.7746 19.0079 21.3422 18.7175 20.9636 18.5031C20.5576 18.2733 20.0865 18.0621 19.618 17.8762C18.6797 17.5038 17.6671 17.2 17.0145 17.0317L16.5151 18.9683ZM17.8944 7.05279C17.4196 6.1032 16.7622 4.66297 16.0637 3.39308C15.7093 2.74866 15.3263 2.11324 14.9232 1.56434C14.5283 1.02658 14.0717 0.512594 13.5547 0.16795L12.4453 1.83205C12.6783 1.98741 12.9717 2.28592 13.3112 2.74816C13.6425 3.19926 13.9782 3.75134 14.3113 4.35692C14.9878 5.58703 15.5804 6.8968 16.1056 7.94721L17.8944 7.05279Z" fill="#0E88AD"/>
</svg>
