<svg width="23" height="23" viewBox="0 0 23 23" fill="none" xmlns="http://www.w3.org/2000/svg">
<path d="M0.9375 7.45312C0.339844 7.45312 0 7.10156 0 6.49219V3.62109C0 1.20703 1.23047 0 3.67969 0H6.53906C7.16016 0 7.5 0.328125 7.5 0.9375C7.5 1.54688 7.16016 1.88672 6.53906 1.88672H3.70312C2.53125 1.88672 1.88672 2.50781 1.88672 3.72656V6.49219C1.88672 7.10156 1.55859 7.45312 0.9375 7.45312ZM21.9961 7.45312C21.3984 7.45312 21.0586 7.10156 21.0586 6.49219V3.72656C21.0586 2.50781 20.3906 1.88672 19.2305 1.88672H16.3945C15.7852 1.88672 15.4453 1.54688 15.4453 0.9375C15.4453 0.328125 15.7852 0 16.3945 0H19.2656C21.7148 0 22.9453 1.20703 22.9453 3.62109V6.49219C22.9453 7.10156 22.6172 7.45312 21.9961 7.45312ZM6.36328 10.957C6.07031 10.957 5.84766 10.7344 5.84766 10.4531V6.36328C5.84766 6.08203 6.07031 5.84766 6.36328 5.84766H10.4414C10.7344 5.84766 10.957 6.08203 10.957 6.36328V10.4531C10.957 10.7344 10.7344 10.957 10.4414 10.957H6.36328ZM12.4805 10.957C12.1875 10.957 11.9648 10.7344 11.9648 10.4531V6.36328C11.9648 6.08203 12.1875 5.84766 12.4805 5.84766H16.5586C16.8516 5.84766 17.0742 6.08203 17.0742 6.36328V10.4531C17.0742 10.7344 16.8516 10.957 16.5586 10.957H12.4805ZM6.86719 9.9375H9.9375V6.86719H6.86719V9.9375ZM12.9844 9.9375H16.0547V6.86719H12.9844V9.9375ZM7.75781 9.04688V7.75781H9.04688V9.04688H7.75781ZM13.8867 9.04688V7.75781H15.1641V9.04688H13.8867ZM6.36328 17.0859C6.07031 17.0859 5.84766 16.8633 5.84766 16.5703V12.4922C5.84766 12.1992 6.07031 11.9766 6.36328 11.9766H10.4414C10.7344 11.9766 10.957 12.1992 10.957 12.4922V16.5703C10.957 16.8633 10.7344 17.0859 10.4414 17.0859H6.36328ZM12.1172 13.3945V12.1172H13.3945V13.3945H12.1172ZM15.6445 13.3945V12.1172H16.9219V13.3945H15.6445ZM6.86719 16.0664H9.9375V12.9961H6.86719V16.0664ZM7.75781 15.1641V13.8867H9.04688V15.1641H7.75781ZM13.875 15.1641V13.8867H15.1641V15.1641H13.875ZM3.67969 22.9336C1.23047 22.9336 0 21.7266 0 19.3008V16.4414C0 15.8203 0.328125 15.4805 0.9375 15.4805C1.54688 15.4805 1.88672 15.8203 1.88672 16.4414V19.207C1.88672 20.4258 2.53125 21.0469 3.70312 21.0469H6.53906C7.16016 21.0469 7.5 21.3867 7.5 21.9961C7.5 22.5938 7.16016 22.9336 6.53906 22.9336H3.67969ZM16.3945 22.9336C15.7852 22.9336 15.4453 22.5938 15.4453 21.9961C15.4453 21.3867 15.7852 21.0469 16.3945 21.0469H19.2305C20.3906 21.0469 21.0586 20.4258 21.0586 19.207V16.4414C21.0586 15.8203 21.3867 15.4805 21.9961 15.4805C22.6055 15.4805 22.9453 15.8203 22.9453 16.4414V19.3008C22.9453 21.7148 21.7148 22.9336 19.2656 22.9336H16.3945ZM12.1172 16.9336V15.6562H13.3945V16.9336H12.1172ZM15.6445 16.9336V15.6562H16.9219V16.9336H15.6445Z" fill="white"/>
</svg>
