<svg width="117" height="117" viewBox="0 0 117 117" fill="none" xmlns="http://www.w3.org/2000/svg">
<path d="M36.2668 10.5235C36.3529 10.4892 36.4563 10.448 36.5597 10.4068L45.4027 22.7742C47.0771 25.1215 48.9153 25.8262 51.5856 24.7618L69.3303 17.6885C72.0006 16.6241 72.8499 14.8481 72.4504 11.9926L70.3607 -3.06678C70.4468 -3.10112 70.5502 -3.14232 70.6364 -3.17666C72.9104 -4.08314 74.0535 -6.67505 73.1401 -8.96635C72.2336 -11.2404 69.6314 -12.3594 67.3401 -11.446C65.066 -10.5395 63.947 -7.93728 64.8535 -5.6632C65.1282 -4.97409 65.5615 -4.3881 66.105 -3.92597L62.8212 0.457673C62.2658 1.21812 61.7181 1.29667 61.0126 0.879111L52.619 -4.20038C53.6123 -5.4149 53.9484 -7.12613 53.3234 -8.69387C52.4238 -10.9507 49.8147 -12.0869 47.5406 -11.1804C45.2493 -10.2671 44.1304 -7.66479 45.0368 -5.39071C45.6686 -3.80575 47.1139 -2.78462 48.6979 -2.61742L47.3524 2.22141L46.0069 7.06024C45.8167 7.73502 45.3859 8.00658 44.5905 7.86443L39.0366 6.90382C39.1132 6.19446 39.0177 5.4539 38.7361 4.74756C37.8296 2.47349 35.2446 1.34768 32.9705 2.25415C30.6792 3.1675 29.5603 5.76977 30.4667 8.04385C31.3801 10.3351 33.9755 11.4369 36.2668 10.5235ZM50.0128 -4.97838C48.8758 -4.52514 47.5747 -5.08462 47.1214 -6.22165C46.6682 -7.35869 47.2276 -8.65983 48.3647 -9.11307C49.4845 -9.55944 50.8097 -8.98961 51.2561 -7.8698C51.7093 -6.73276 51.1499 -5.43162 50.0128 -4.97838ZM44.4639 10.0512C45.9238 10.3078 47.5571 9.59683 48.0518 7.78247L50.9571 -2.65949L60.3041 2.9584C61.7771 3.84869 63.4136 3.29618 64.1276 2.33273L68.0704 -2.95243C68.1117 -2.94893 68.1358 -2.93858 68.1771 -2.93508L69.7581 8.39388L44.8811 18.3102L38.2282 8.98299L38.2455 8.97612L44.4639 10.0512ZM35.4427 8.45618C34.3057 8.90942 32.9873 8.35681 32.5341 7.21977C32.074 6.06551 32.6575 4.77473 33.7946 4.32149C34.9144 3.87512 36.2224 4.45182 36.6688 5.57163C37.122 6.70867 36.5798 8.00294 35.4427 8.45618ZM69.8123 -5.244C68.6752 -4.79076 67.3913 -5.3571 66.9381 -6.49414C66.4917 -7.61395 67.0443 -8.93231 68.1641 -9.37869C69.3012 -9.83192 70.5954 -9.28968 71.0556 -8.13541C71.5088 -6.99838 70.9493 -5.69724 69.8123 -5.244ZM50.7477 22.7599C49.3178 23.3299 48.2058 22.9945 47.3428 21.7812L46.1669 20.1336L70.0792 10.6018L70.3592 12.6065C70.5675 14.0808 69.9912 15.0892 68.5613 15.6591L50.7477 22.7599Z" fill="#DFE5EE"/>
<path d="M82.9621 -8.09367C83.0483 -8.128 83.1516 -8.16921 83.255 -8.21041L92.098 4.15697C93.7724 6.50429 95.6106 7.20905 98.2809 6.14462L116.026 -0.928654C118.696 -1.99308 119.545 -3.76913 119.146 -6.62462L117.056 -21.684C117.142 -21.7183 117.246 -21.7595 117.332 -21.7938C119.606 -22.7003 120.749 -25.2922 119.835 -27.5835C118.929 -29.8576 116.327 -30.9766 114.035 -30.0632C111.761 -29.1567 110.642 -26.5545 111.549 -24.2804C111.824 -23.5913 112.257 -23.0053 112.8 -22.5432L109.516 -18.1595C108.961 -17.3991 108.413 -17.3205 107.708 -17.7381L99.3143 -22.8176C100.308 -24.0321 100.644 -25.7433 100.019 -27.3111C99.1191 -29.5679 96.51 -30.7041 94.2359 -29.7976C91.9446 -28.8843 90.8257 -26.282 91.7322 -24.0079C92.3639 -22.4229 93.8092 -21.4018 95.3932 -21.2346L92.7022 -11.5569C92.512 -10.8822 92.0812 -10.6106 91.2858 -10.7528L85.7319 -11.7134C85.8085 -12.4227 85.713 -13.1633 85.4314 -13.8696C84.5249 -16.1437 81.9399 -17.2695 79.6658 -16.363C77.3745 -15.4497 76.2556 -12.8474 77.1621 -10.5733C78.0754 -8.28204 80.6708 -7.18032 82.9621 -8.09367ZM96.7081 -23.5956C95.5711 -23.1423 94.27 -23.7018 93.8167 -24.8388C93.3635 -25.9759 93.923 -27.277 95.06 -27.7303C96.1798 -28.1766 97.505 -27.6068 97.9514 -26.487C98.4046 -25.3499 97.8452 -24.0488 96.7081 -23.5956ZM91.1592 -8.56602C92.6191 -8.30942 94.2524 -9.02036 94.7471 -10.8347L97.6524 -21.2767L106.999 -15.6588C108.472 -14.7685 110.109 -15.321 110.823 -16.2845L114.766 -21.5696C114.807 -21.5661 114.831 -21.5558 114.872 -21.5523L116.453 -10.2233L91.5764 -0.306983L84.9235 -9.6342L84.9408 -9.64107L91.1592 -8.56602ZM82.138 -10.161C81.001 -9.70777 79.6826 -10.2604 79.2294 -11.3974C78.7693 -12.5517 79.3529 -13.8425 80.4899 -14.2957C81.6097 -14.7421 82.9177 -14.1654 83.3641 -13.0456C83.8173 -11.9085 83.2751 -10.6142 82.138 -10.161ZM116.508 -23.8612C115.371 -23.408 114.087 -23.9743 113.633 -25.1113C113.187 -26.2311 113.74 -27.5495 114.859 -27.9959C115.996 -28.4491 117.291 -27.9069 117.751 -26.7526C118.204 -25.6156 117.645 -24.3144 116.508 -23.8612ZM97.443 4.1427C96.0131 4.71268 94.9011 4.37729 94.0381 3.16399L92.8622 1.51639L116.774 -8.01536L117.054 -6.01066C117.263 -4.53641 116.686 -3.52803 115.257 -2.95805L97.443 4.1427Z" fill="#DFE5EE"/>
<path d="M28.1027 56.836C28.1889 56.8017 28.2922 56.7605 28.3956 56.7193L37.2386 69.0867C38.913 71.434 40.7512 72.1387 43.4215 71.0743L61.1662 64.001C63.8365 62.9366 64.6858 61.1606 64.2863 58.3051L62.1966 43.2457C62.2828 43.2114 62.3862 43.1702 62.4723 43.1358C64.7464 42.2294 65.8894 39.6375 64.9761 37.3461C64.0696 35.0721 61.4673 33.9531 59.176 34.8665C56.9019 35.773 55.783 38.3752 56.6895 40.6493C56.9642 41.3384 57.3974 41.9244 57.941 42.3865L54.6571 46.7702C54.1017 47.5306 53.5541 47.6092 52.8486 47.1916L44.4549 42.1121C45.4482 40.8976 45.7843 39.1864 45.1594 37.6186C44.2598 35.3618 41.6506 34.2256 39.3766 35.1321C37.0852 36.0454 35.9663 38.6477 36.8728 40.9218C37.5046 42.5067 38.9498 43.5279 40.5338 43.6951L37.8429 53.3727C37.6526 54.0475 37.2218 54.3191 36.4264 54.1769L30.8725 53.2163C30.9492 52.507 30.8536 51.7664 30.5721 51.0601C29.6656 48.786 27.0805 47.6602 24.8065 48.5667C22.5152 49.48 21.3962 52.0823 22.3027 54.3563C23.216 56.6476 25.8114 57.7494 28.1027 56.836ZM41.8488 41.3341C40.7117 41.7874 39.4106 41.2279 38.9574 40.0908C38.5041 38.9538 39.0636 37.6527 40.2006 37.1994C41.3204 36.7531 42.6457 37.3229 43.092 38.4427C43.5453 39.5797 42.9858 40.8809 41.8488 41.3341ZM36.2998 56.3637C37.7598 56.6203 39.393 55.9093 39.8877 54.095L42.7931 43.653L52.1401 49.2709C53.613 50.1612 55.2495 49.6087 55.9636 48.6452L59.9063 43.3601C59.9476 43.3636 59.9717 43.3739 60.013 43.3774L61.594 54.7064L36.717 64.6227L30.0642 55.2955L30.0814 55.2886L36.2998 56.3637ZM27.2787 54.7687C26.1416 55.2219 24.8233 54.6693 24.37 53.5323C23.9099 52.378 24.4935 51.0872 25.6305 50.634C26.7503 50.1876 28.0583 50.7643 28.5047 51.8841C28.9579 53.0212 28.4157 54.3154 27.2787 54.7687ZM61.6482 41.0685C60.5112 41.5217 59.2273 40.9554 58.774 39.8184C58.3277 38.6985 58.8803 37.3802 60.0001 36.9338C61.1371 36.4806 62.4314 37.0228 62.8915 38.1771C63.3447 39.3141 62.7853 40.6153 61.6482 41.0685ZM42.5836 69.0724C41.1537 69.6424 40.0417 69.307 39.1787 68.0937L38.0029 66.4461L61.9151 56.9143L62.1951 58.919C62.4034 60.3933 61.8271 61.4017 60.3972 61.9716L42.5836 69.0724Z" fill="#DFE5EE"/>
<path d="M74.5481 38.3204C74.6342 38.2861 74.7376 38.2449 74.8409 38.2037L83.6839 50.571C85.3583 52.9184 87.1965 53.6231 89.8668 52.5587L107.612 45.4854C110.282 44.421 111.131 42.6449 110.732 39.7894L108.642 24.7301C108.728 24.6958 108.831 24.6546 108.918 24.6202C111.192 23.7137 112.335 21.1218 111.421 18.8305C110.515 16.5564 107.913 15.4375 105.621 16.3508C103.347 17.2573 102.228 19.8596 103.135 22.1337C103.409 22.8228 103.843 23.4088 104.386 23.8709L101.102 28.2545C100.547 29.015 99.9994 29.0935 99.2939 28.676L90.9002 23.5965C91.8935 22.382 92.2296 20.6707 91.6047 19.103C90.7051 16.8462 88.0959 15.71 85.8219 16.6165C83.5306 17.5298 82.4116 20.1321 83.3181 22.4062C83.9499 23.9911 85.3951 25.0123 86.9791 25.1795L84.2882 34.8571C84.0979 35.5319 83.6671 35.8035 82.8718 35.6613L77.3179 34.7007C77.3945 33.9913 77.2989 33.2508 77.0174 32.5444C76.1109 30.2704 73.5258 29.1446 71.2518 30.051C68.9605 30.9644 67.8415 33.5666 68.748 35.8407C69.6613 38.132 72.2567 39.2337 74.5481 38.3204ZM88.2941 22.8185C87.157 23.2717 85.8559 22.7123 85.4027 21.5752C84.9494 20.4382 85.5089 19.137 86.6459 18.6838C87.7657 18.2374 89.091 18.8073 89.5373 19.9271C89.9906 21.0641 89.4311 22.3653 88.2941 22.8185ZM82.7452 37.848C84.2051 38.1046 85.8384 37.3937 86.333 35.5793L89.2384 25.1374L98.5854 30.7553C100.058 31.6456 101.695 31.0931 102.409 30.1296L106.352 24.8444C106.393 24.8479 106.417 24.8583 106.458 24.8618L108.039 36.1908L83.1623 46.1071L76.5095 36.7799L76.5267 36.773L82.7452 37.848ZM73.724 36.2531C72.5869 36.7063 71.2686 36.1537 70.8153 35.0166C70.3552 33.8624 70.9388 32.5716 72.0758 32.1184C73.1956 31.672 74.5037 32.2487 74.95 33.3685C75.4033 34.5055 74.861 35.7998 73.724 36.2531ZM108.094 22.5529C106.956 23.0061 105.673 22.4398 105.219 21.3027C104.773 20.1829 105.326 18.8646 106.445 18.4182C107.582 17.965 108.877 18.5072 109.337 19.6615C109.79 20.7985 109.231 22.0996 108.094 22.5529ZM89.0289 50.5568C87.599 51.1267 86.487 50.7914 85.624 49.5781L84.4482 47.9305L108.36 38.3987L108.64 40.4034C108.849 41.8777 108.272 42.886 106.843 43.456L89.0289 50.5568Z" fill="#DFE5EE"/>
<path d="M120.993 19.8048C121.08 19.7704 121.183 19.7292 121.286 19.688L130.129 32.0554C131.804 34.4027 133.642 35.1075 136.312 34.0431L154.057 26.9698C156.727 25.9054 157.576 24.1293 157.177 21.2738L155.087 6.21447C155.173 6.18013 155.277 6.13893 155.363 6.10459C157.637 5.19811 158.78 2.6062 157.867 0.314897C156.96 -1.95918 154.358 -3.07812 152.067 -2.16478C149.793 -1.2583 148.674 1.34397 149.58 3.61805C149.855 4.30716 150.288 4.89315 150.832 5.35528L147.548 9.73892C146.992 10.4994 146.445 10.5779 145.739 10.1604L137.346 5.08087C138.339 3.86635 138.675 2.15512 138.05 0.587383C137.15 -1.66946 134.541 -2.80564 132.267 -1.89916C129.976 -0.985813 128.857 1.61646 129.763 3.89054C130.395 5.4755 131.84 6.49663 133.424 6.66383L130.733 16.3415C130.543 17.0163 130.112 17.2878 129.317 17.1457L123.763 16.1851C123.84 15.4757 123.744 14.7352 123.463 14.0288C122.556 11.7547 119.971 10.6289 117.697 11.5354C115.406 12.4487 114.287 15.051 115.193 17.3251C116.107 19.6164 118.702 20.7181 120.993 19.8048ZM134.739 4.30287C133.602 4.75611 132.301 4.19663 131.848 3.0596C131.395 1.92256 131.954 0.621423 133.091 0.168184C134.211 -0.278188 135.536 0.291645 135.983 1.41145C136.436 2.54849 135.876 3.84963 134.739 4.30287ZM129.19 19.3324C130.65 19.589 132.284 18.8781 132.778 17.0637L135.684 6.62176L145.031 12.2396C146.504 13.1299 148.14 12.5774 148.854 11.614L152.797 6.32882C152.838 6.33232 152.862 6.34267 152.904 6.34617L154.485 17.6751L129.608 27.5915L122.955 18.2642L122.972 18.2574L129.19 19.3324ZM120.169 17.7374C119.032 18.1907 117.714 17.6381 117.261 16.501C116.801 15.3468 117.384 14.056 118.521 13.6027C119.641 13.1564 120.949 13.7331 121.395 14.8529C121.849 15.9899 121.306 17.2842 120.169 17.7374ZM154.539 4.03725C153.402 4.49049 152.118 3.92415 151.665 2.78711C151.218 1.6673 151.771 0.348937 152.891 -0.0974353C154.028 -0.550674 155.322 -0.00843036 155.782 1.14584C156.235 2.28287 155.676 3.58401 154.539 4.03725ZM135.474 32.0411C134.044 32.6111 132.932 32.2757 132.069 31.0624L130.893 29.4148L154.806 19.8831L155.086 21.8878C155.294 23.362 154.718 24.3704 153.288 24.9404L135.474 32.0411Z" fill="#DFE5EE"/>
<path d="M65.8833 84.8365C65.9695 84.8022 66.0728 84.761 66.1762 84.7198L75.0186 97.0876C76.6928 99.435 78.531 100.14 81.2014 99.0756L98.9464 92.0032C101.617 90.9389 102.466 89.1629 102.067 86.3074L99.9779 71.248C100.064 71.2136 100.167 71.1724 100.254 71.1381C102.528 70.2317 103.671 67.6399 102.758 65.3485C101.851 63.0744 99.2491 61.9553 96.9577 62.8686C94.6836 63.7749 93.5645 66.3771 94.4709 68.6513C94.7455 69.3404 95.1787 69.9264 95.7223 70.3886L92.4382 74.772C91.8828 75.5324 91.3351 75.611 90.6296 75.1934L82.2362 70.1135C83.2296 68.899 83.5658 67.1878 82.9409 65.62C82.0414 63.3631 79.4324 62.2268 77.1582 63.1332C74.8669 64.0464 73.7478 66.6486 74.6542 68.9227C75.2859 70.5077 76.7311 71.5289 78.3151 71.6962L76.9693 76.535L75.6236 81.3737C75.4334 82.0485 75.0025 82.3201 74.2072 82.1779L68.6533 81.217C68.73 80.5076 68.6344 79.7671 68.3529 79.0607C67.4466 76.7866 64.8616 75.6606 62.5875 76.567C60.2961 77.4802 59.177 80.0824 60.0834 82.3566C60.9966 84.6479 63.592 85.7498 65.8833 84.8365ZM79.6301 69.3353C78.4931 69.7885 77.192 69.229 76.7388 68.0919C76.2856 66.9548 76.8451 65.6537 77.9822 65.2006C79.102 64.7542 80.4272 65.3241 80.8735 66.444C81.3267 67.581 80.7672 68.8821 79.6301 69.3353ZM74.0805 84.3646C75.5404 84.6213 77.1737 83.9104 77.6684 82.0961L80.5743 71.6543L89.921 77.2726C91.3939 78.163 93.0305 77.6106 93.7446 76.6472L97.6876 71.3622C97.7289 71.3657 97.753 71.3761 97.7943 71.3796L99.3747 82.7086L74.4972 92.6237L67.8448 83.2961L67.8621 83.2892L74.0805 84.3646ZM65.0594 82.7691C63.9223 83.2223 62.604 82.6697 62.1508 81.5326C61.6907 80.3783 62.2744 79.0876 63.4114 78.6344C64.5313 78.1881 65.8392 78.7648 66.2855 79.8847C66.7387 81.0217 66.1964 82.316 65.0594 82.7691ZM99.4296 69.0707C98.2925 69.5239 97.0087 68.9575 96.5555 67.8204C96.1092 66.7006 96.6618 65.3823 97.7817 64.9359C98.9187 64.4828 100.213 65.0251 100.673 66.1794C101.126 67.3164 100.567 68.6175 99.4296 69.0707ZM80.3636 97.0736C78.9336 97.6435 77.8216 97.3081 76.9587 96.0948L75.783 94.4471L99.6957 84.9166L99.9756 86.9213C100.184 88.3955 99.6074 89.4039 98.1775 89.9738L80.3636 97.0736Z" fill="#DFE5EE"/>
<path d="M112.579 66.2188C112.665 66.1845 112.769 66.1433 112.872 66.1021L121.715 78.4695C123.39 80.8168 125.228 81.5215 127.898 80.4571L145.643 73.3838C148.313 72.3194 149.162 70.5434 148.763 67.6879L146.673 52.6285C146.759 52.5942 146.863 52.553 146.949 52.5187C149.223 51.6122 150.366 49.0203 149.453 46.729C148.546 44.4549 145.944 43.3359 143.653 44.2493C141.378 45.1558 140.26 47.758 141.166 50.0321C141.441 50.7212 141.874 51.3072 142.418 51.7693L139.134 56.153C138.578 56.9134 138.031 56.992 137.325 56.5744L128.931 51.4949C129.925 50.2804 130.261 48.5692 129.636 47.0014C128.736 44.7446 126.127 43.6084 123.853 44.5149C121.562 45.4282 120.443 48.0305 121.349 50.3046C121.981 51.8896 123.426 52.9107 125.01 53.0779L122.319 62.7556C122.129 63.4303 121.698 63.7019 120.903 63.5597L115.349 62.5991C115.426 61.8898 115.33 61.1492 115.049 60.4429C114.142 58.1688 111.557 57.043 109.283 57.9495C106.992 58.8628 105.873 61.4651 106.779 63.7392C107.693 66.0305 110.288 67.1322 112.579 66.2188ZM126.325 50.7169C125.188 51.1702 123.887 50.6107 123.434 49.4737C122.981 48.3366 123.54 47.0355 124.677 46.5822C125.797 46.1359 127.122 46.7057 127.569 47.8255C128.022 48.9626 127.462 50.2637 126.325 50.7169ZM120.776 65.7465C122.236 66.0031 123.87 65.2921 124.364 63.4778L127.27 53.0358L136.617 58.6537C138.09 59.544 139.726 58.9915 140.44 58.028L144.383 52.7429C144.424 52.7464 144.448 52.7567 144.49 52.7602L146.071 64.0892L121.194 74.0055L114.541 64.6783L114.558 64.6714L120.776 65.7465ZM111.755 64.1515C110.618 64.6047 109.3 64.0521 108.847 62.9151C108.386 61.7608 108.97 60.47 110.107 60.0168C111.227 59.5704 112.535 60.1471 112.981 61.2669C113.435 62.404 112.892 63.6983 111.755 64.1515ZM146.125 50.4513C144.988 50.9045 143.704 50.3382 143.251 49.2012C142.804 48.0814 143.357 46.763 144.477 46.3166C145.614 45.8634 146.908 46.4056 147.368 47.5599C147.821 48.6969 147.262 49.9981 146.125 50.4513ZM127.06 78.4552C125.63 79.0252 124.518 78.6898 123.655 77.4765L122.479 75.8289L146.392 66.2971L146.672 68.3018C146.88 69.7761 146.304 70.7845 144.874 71.3545L127.06 78.4552Z" fill="#DFE5EE"/>
</svg>
