<svg width="32" height="32" viewBox="0 0 32 32" fill="none" xmlns="http://www.w3.org/2000/svg">
<path d="M24.2161 25.3998L6.57031 7.76434C6.25781 7.45184 6.25781 6.91017 6.57031 6.59767C6.89323 6.26434 7.4349 6.27476 7.7474 6.59767L25.3932 24.2227C25.7161 24.5456 25.737 25.0456 25.3932 25.3998C25.0599 25.7435 24.5495 25.7227 24.2161 25.3998ZM16.0078 7.19142C24.5495 7.19142 30.3099 14.0664 30.3099 16.2018C30.3099 17.431 28.4036 20.2331 25.1328 22.3789L23.5911 20.8268C26.2682 19.1498 27.9557 17.0248 27.9557 16.2018C27.9557 14.9831 22.6641 9.19142 16.0078 9.19142C14.8307 9.19142 13.737 9.36851 12.6849 9.67059L11.0182 8.00392C12.5495 7.50392 14.1953 7.19142 16.0078 7.19142ZM16.0078 25.2227C7.58073 25.2227 1.69531 18.3373 1.69531 16.2018C1.69531 14.9518 3.70573 12.0873 7.11198 9.92059L8.6849 11.4935C5.83073 13.2435 4.0599 15.5039 4.0599 16.2018C4.0599 17.6602 9.35156 23.2227 16.0078 23.2227C17.2995 23.2227 18.4974 23.0143 19.6328 22.681L21.2891 24.3373C19.6953 24.8893 17.9349 25.2227 16.0078 25.2227ZM21.2057 18.2123L13.987 10.9935C14.612 10.7331 15.2891 10.5977 16.0078 10.5977C19.1328 10.5977 21.6328 13.0664 21.6328 16.2018C21.6328 16.9102 21.4766 17.5977 21.2057 18.2123ZM16.0078 21.8164C12.8724 21.8164 10.3828 19.2643 10.3724 16.2123C10.3724 15.3789 10.5599 14.6185 10.8932 13.931L18.2578 21.306C17.5807 21.6289 16.8203 21.8164 16.0078 21.8164Z" fill="#202020"/>
</svg>
