<svg width="25" height="24" viewBox="0 0 25 24" fill="none" xmlns="http://www.w3.org/2000/svg">
<path d="M5.45537 10.8859C8.45024 10.8859 10.8983 8.42538 10.8983 5.43052C10.8983 2.46051 8.45024 0 5.45537 0C2.44808 0 0 2.46051 0 5.43052C0 8.42538 2.44808 10.8859 5.45537 10.8859ZM19.0752 10.8859C22.0576 10.8859 24.5181 8.42538 24.5181 5.43052C24.5181 2.46051 22.0576 0 19.0752 0C16.0555 0 13.6198 2.46051 13.6198 5.43052C13.6198 8.42538 16.0555 10.8859 19.0752 10.8859ZM5.45537 23.6855C8.45024 23.6855 10.8983 21.225 10.8983 18.2301C10.8983 15.2601 8.45024 12.7872 5.45537 12.7872C2.44808 12.7872 0 15.2601 0 18.2301C0 21.225 2.44808 23.6855 5.45537 23.6855ZM19.0752 23.6855C22.0576 23.6855 24.5181 21.225 24.5181 18.2301C24.5181 15.2601 22.0576 12.7872 19.0752 12.7872C16.0555 12.7872 13.6198 15.2601 13.6198 18.2301C13.6198 21.225 16.0555 23.6855 19.0752 23.6855Z" fill="#4D4D4D"/>
</svg>
