<svg width="28" height="28" viewBox="0 0 28 28" fill="none" xmlns="http://www.w3.org/2000/svg">
<path d="M6.20021 16C4.99062 16 4 15.0995 4 14C4 12.891 4.99062 12 6.20021 12C7.45151 12 8.4317 12.8815 8.4317 14C8.4317 15.0995 7.43066 16 6.20021 16ZM14 16C12.78 16 11.7998 15.0995 11.7998 14C11.7998 12.891 12.78 12 14 12C15.2304 12 16.1898 12.8815 16.1898 14C16.1898 15.0995 15.1992 16 14 16ZM21.7894 16C20.5589 16 19.5683 15.0995 19.5683 14C19.5683 12.891 20.5589 12 21.7894 12C23.0198 12 24 12.8815 24 14C24 15.0995 22.999 16 21.7894 16Z" fill="#202020"/>
</svg>
