<svg width="26" height="24" viewBox="0 0 26 24" fill="none" xmlns="http://www.w3.org/2000/svg">
<path d="M5.91192 23.1463C4.32635 23.1463 3.39796 22.2388 3.39796 20.6949V10.9833L2.19835 11.9847C1.948 12.1934 1.66636 12.3707 1.34298 12.3707C0.675377 12.3707 0.268555 11.9117 0.268555 11.3693C0.268555 11.0772 0.404162 10.7747 0.675377 10.5452L11.5448 1.41779C12.4524 0.666728 13.579 0.666728 14.4761 1.41779L19.5874 5.7155V3.76484C19.5874 3.29543 19.9004 2.99292 20.3593 2.99292H21.7676C22.237 2.99292 22.5395 3.29543 22.5395 3.76484V8.19816L25.3247 10.5452C25.5959 10.7643 25.7315 11.0459 25.7315 11.4006C25.7315 11.9952 25.2725 12.3707 24.6675 12.3707C24.3441 12.3707 24.0625 12.1934 23.8121 11.9847L22.5395 10.9207V20.6949C22.5395 22.2388 21.6111 23.1463 20.0255 23.1463H5.91192ZM15.999 14.2588V21.1017H19.4831C20.1403 21.1017 20.4949 20.7366 20.4949 20.0795V9.19957L13.4538 3.29543C13.1721 3.04508 12.8488 3.04508 12.5671 3.29543L5.44251 9.26216V20.0795C5.44251 20.7366 5.79717 21.1017 6.45435 21.1017H9.99057V14.2588C9.99057 13.7685 10.3244 13.4556 10.8042 13.4556H15.1958C15.6861 13.4556 15.999 13.7685 15.999 14.2588Z" fill="#797979"/>
</svg>
