<svg width="26" height="24" viewBox="0 0 26 24" fill="none" xmlns="http://www.w3.org/2000/svg">
<path d="M0.265625 11.3664C0.265625 11.0743 0.401233 10.7718 0.672448 10.5423L11.5419 1.41486C12.4494 0.663798 13.576 0.663798 14.4731 1.41486L19.4384 5.59783V3.76191C19.4384 3.2925 19.7514 2.98999 20.2208 2.98999H21.629C22.088 2.98999 22.3905 3.2925 22.3905 3.76191V8.07006L25.3217 10.5423C25.5929 10.7613 25.7286 11.043 25.7286 11.3977C25.7286 11.9922 25.2696 12.3678 24.6646 12.3678C24.3412 12.3678 24.0595 12.1904 23.8092 11.9818L13.4509 3.2925C13.1692 3.04215 12.8458 3.04215 12.5642 3.2925L2.19543 11.9818C1.94507 12.1904 1.66343 12.3678 1.34005 12.3678C0.672448 12.3678 0.265625 11.9088 0.265625 11.3664ZM3.64538 20.7442V12.785L12.3556 5.48308C12.752 5.14928 13.2422 5.13885 13.6386 5.48308L22.3592 12.7955V20.7442C22.3592 22.2463 21.4204 23.1434 19.8766 23.1434H6.11761C4.5842 23.1434 3.64538 22.2463 3.64538 20.7442ZM15.7249 21.0988V14.3289C15.7249 13.8386 15.4119 13.5257 14.9217 13.5257H11.0725C10.5822 13.5257 10.2589 13.8386 10.2589 14.3289V21.0988H15.7249Z" fill="#11B1E2"/>
</svg>
